<mxfile host="app.diagrams.net" modified="2024-07-01T19:14:54.070Z" agent="Mozilla/5.0 (Windows NT 10.0; Win64; x64) AppleWebKit/537.36 (KHTML, like Gecko) Chrome/126.0.0.0 Safari/537.36 Edg/126.0.0.0" etag="ZA2BEd5yyXqqKbRCjzxi" version="24.6.4" type="device">
  <diagram name="Page-1" id="u3mzvMPkxlU4ujAfn3zo">
    <mxGraphModel dx="2026" dy="1111" grid="1" gridSize="10" guides="1" tooltips="1" connect="1" arrows="1" fold="1" page="1" pageScale="1" pageWidth="1169" pageHeight="827" math="0" shadow="0">
      <root>
        <mxCell id="0" />
        <mxCell id="1" parent="0" />
        <mxCell id="CYu14Wp-lPYjv29uujxx-2" value="TAG Units/&lt;br&gt;TEP" style="rhombus;whiteSpace=wrap;html=1;fillColor=#f8cecc;strokeColor=#b85450;" parent="1" vertex="1">
          <mxGeometry x="70" y="400" width="90" height="90" as="geometry" />
        </mxCell>
        <mxCell id="CYu14Wp-lPYjv29uujxx-3" value="" style="shape=flexArrow;endArrow=classic;html=1;rounded=0;exitX=1;exitY=0.5;exitDx=0;exitDy=0;endWidth=23.183673469387752;endSize=7.525714285714286;width=19.428571428571427;fillColor=#f8cecc;strokeColor=#b85450;" parent="1" source="CYu14Wp-lPYjv29uujxx-2" edge="1">
          <mxGeometry width="50" height="50" relative="1" as="geometry">
            <mxPoint x="280" y="610" as="sourcePoint" />
            <mxPoint x="240" y="445" as="targetPoint" />
          </mxGeometry>
        </mxCell>
        <mxCell id="CYu14Wp-lPYjv29uujxx-4" value="Quads" style="edgeLabel;html=1;align=center;verticalAlign=middle;resizable=0;points=[];labelBackgroundColor=none;" parent="CYu14Wp-lPYjv29uujxx-3" vertex="1" connectable="0">
          <mxGeometry x="-0.5161" y="1" relative="1" as="geometry">
            <mxPoint as="offset" />
          </mxGeometry>
        </mxCell>
        <mxCell id="CYu14Wp-lPYjv29uujxx-17" value="" style="edgeStyle=orthogonalEdgeStyle;rounded=0;orthogonalLoop=1;jettySize=auto;html=1;" parent="1" source="CYu14Wp-lPYjv29uujxx-7" target="CYu14Wp-lPYjv29uujxx-8" edge="1">
          <mxGeometry relative="1" as="geometry" />
        </mxCell>
        <mxCell id="CYu14Wp-lPYjv29uujxx-7" value="ADS" style="rounded=0;whiteSpace=wrap;html=1;fillColor=#f8cecc;strokeColor=#b85450;" parent="1" vertex="1">
          <mxGeometry x="240" y="415" width="60" height="60" as="geometry" />
        </mxCell>
        <mxCell id="CYu14Wp-lPYjv29uujxx-18" value="" style="edgeStyle=orthogonalEdgeStyle;rounded=0;orthogonalLoop=1;jettySize=auto;html=1;entryX=0;entryY=0.5;entryDx=0;entryDy=0;" parent="1" source="CYu14Wp-lPYjv29uujxx-8" target="CYu14Wp-lPYjv29uujxx-11" edge="1">
          <mxGeometry relative="1" as="geometry" />
        </mxCell>
        <mxCell id="CYu14Wp-lPYjv29uujxx-8" value="Bridge Service" style="rounded=0;whiteSpace=wrap;html=1;fillColor=#f8cecc;strokeColor=#b85450;" parent="1" vertex="1">
          <mxGeometry x="330" y="415" width="120" height="60" as="geometry" />
        </mxCell>
        <mxCell id="CYu14Wp-lPYjv29uujxx-11" value="Stream&lt;br&gt;API" style="rounded=0;whiteSpace=wrap;html=1;fillColor=#d5e8d4;strokeColor=#82b366;" parent="1" vertex="1">
          <mxGeometry x="470" y="412.5" width="70" height="65" as="geometry" />
        </mxCell>
        <mxCell id="CYu14Wp-lPYjv29uujxx-13" value="" style="shape=flexArrow;endArrow=classic;html=1;rounded=0;endWidth=23.183673469387752;endSize=7.525714285714286;width=19.428571428571427;fillColor=#d5e8d4;strokeColor=#82b366;exitX=1.037;exitY=0.562;exitDx=0;exitDy=0;exitPerimeter=0;" parent="1" source="CYu14Wp-lPYjv29uujxx-11" edge="1">
          <mxGeometry width="50" height="50" relative="1" as="geometry">
            <mxPoint x="580" y="450" as="sourcePoint" />
            <mxPoint x="740" y="447.21" as="targetPoint" />
          </mxGeometry>
        </mxCell>
        <mxCell id="CYu14Wp-lPYjv29uujxx-16" value="open data format" style="edgeLabel;html=1;align=center;verticalAlign=middle;resizable=0;points=[];labelBackgroundColor=none;" parent="CYu14Wp-lPYjv29uujxx-13" vertex="1" connectable="0">
          <mxGeometry x="-0.5429" relative="1" as="geometry">
            <mxPoint x="25" as="offset" />
          </mxGeometry>
        </mxCell>
        <mxCell id="CYu14Wp-lPYjv29uujxx-28" value="" style="group" parent="1" vertex="1" connectable="0">
          <mxGeometry x="50" y="660" width="420" height="110" as="geometry" />
        </mxCell>
        <mxCell id="CYu14Wp-lPYjv29uujxx-21" value="Legend:" style="rounded=0;whiteSpace=wrap;html=1;opacity=10;align=left;verticalAlign=top;spacing=2;spacingLeft=8;fillColor=none;" parent="CYu14Wp-lPYjv29uujxx-28" vertex="1">
          <mxGeometry width="420" height="110" as="geometry" />
        </mxCell>
        <mxCell id="CYu14Wp-lPYjv29uujxx-22" value="McLaren Applied&lt;br&gt;Open Source" style="rounded=0;html=1;fillColor=#d5e8d4;strokeColor=#82b366;labelPosition=left;verticalLabelPosition=middle;align=right;verticalAlign=middle;spacingRight=20;spacingLeft=20;fontSize=11;" parent="CYu14Wp-lPYjv29uujxx-28" vertex="1">
          <mxGeometry x="250" y="30" width="20" height="20" as="geometry" />
        </mxCell>
        <mxCell id="CYu14Wp-lPYjv29uujxx-23" value="&lt;font style=&quot;font-size: 11px;&quot;&gt;Standard&lt;/font&gt;" style="rounded=0;html=1;fillColor=#dae8fc;strokeColor=#6c8ebf;labelPosition=left;verticalLabelPosition=middle;align=right;verticalAlign=middle;spacingRight=20;spacingLeft=20;fontSize=11;" parent="CYu14Wp-lPYjv29uujxx-28" vertex="1">
          <mxGeometry x="108" y="30" width="20" height="20" as="geometry" />
        </mxCell>
        <mxCell id="CYu14Wp-lPYjv29uujxx-24" value="&lt;font style=&quot;font-size: 11px;&quot;&gt;Third-Party&lt;/font&gt;" style="rounded=0;html=1;fillColor=#ffe6cc;strokeColor=#d79b00;labelPosition=left;verticalLabelPosition=middle;align=right;verticalAlign=middle;spacingRight=20;spacingLeft=20;fontSize=11;" parent="CYu14Wp-lPYjv29uujxx-28" vertex="1">
          <mxGeometry x="369" y="30" width="20" height="20" as="geometry" />
        </mxCell>
        <mxCell id="CYu14Wp-lPYjv29uujxx-25" value="&lt;font style=&quot;font-size: 11px;&quot;&gt;Mclaren Applied&lt;br&gt;Proprietary&lt;br&gt;&lt;/font&gt;" style="rounded=0;html=1;fillColor=#f8cecc;strokeColor=#b85450;labelPosition=left;verticalLabelPosition=middle;align=right;verticalAlign=middle;spacingRight=20;spacingLeft=20;fontSize=11;" parent="CYu14Wp-lPYjv29uujxx-28" vertex="1">
          <mxGeometry x="108" y="70" width="20" height="20" as="geometry" />
        </mxCell>
        <mxCell id="CYu14Wp-lPYjv29uujxx-34" style="edgeStyle=orthogonalEdgeStyle;rounded=0;orthogonalLoop=1;jettySize=auto;html=1;exitX=0.5;exitY=1;exitDx=0;exitDy=0;entryX=0.5;entryY=0;entryDx=0;entryDy=0;" parent="1" source="CYu14Wp-lPYjv29uujxx-29" target="CYu14Wp-lPYjv29uujxx-32" edge="1">
          <mxGeometry relative="1" as="geometry" />
        </mxCell>
        <mxCell id="CYu14Wp-lPYjv29uujxx-57" style="edgeStyle=orthogonalEdgeStyle;rounded=0;orthogonalLoop=1;jettySize=auto;html=1;exitX=0.5;exitY=0;exitDx=0;exitDy=0;" parent="1" source="CYu14Wp-lPYjv29uujxx-29" target="CYu14Wp-lPYjv29uujxx-56" edge="1">
          <mxGeometry relative="1" as="geometry" />
        </mxCell>
        <mxCell id="CYu14Wp-lPYjv29uujxx-70" style="edgeStyle=orthogonalEdgeStyle;rounded=0;orthogonalLoop=1;jettySize=auto;html=1;exitX=0.75;exitY=0;exitDx=0;exitDy=0;" parent="1" source="CYu14Wp-lPYjv29uujxx-29" target="CYu14Wp-lPYjv29uujxx-72" edge="1">
          <mxGeometry relative="1" as="geometry">
            <mxPoint x="880" y="280" as="targetPoint" />
          </mxGeometry>
        </mxCell>
        <mxCell id="CYu14Wp-lPYjv29uujxx-73" value="Broker Replication" style="edgeLabel;html=1;align=center;verticalAlign=middle;resizable=0;points=[];labelBackgroundColor=default;" parent="CYu14Wp-lPYjv29uujxx-70" vertex="1" connectable="0">
          <mxGeometry x="-0.0536" y="-1" relative="1" as="geometry">
            <mxPoint x="12" as="offset" />
          </mxGeometry>
        </mxCell>
        <mxCell id="CYu14Wp-lPYjv29uujxx-29" value="Broker" style="shape=parallelogram;perimeter=parallelogramPerimeter;whiteSpace=wrap;html=1;fixedSize=1;fillColor=#dae8fc;strokeColor=#6c8ebf;" parent="1" vertex="1">
          <mxGeometry x="730" y="417.5" width="120" height="60" as="geometry" />
        </mxCell>
        <mxCell id="CYu14Wp-lPYjv29uujxx-31" value="" style="edgeStyle=orthogonalEdgeStyle;rounded=0;orthogonalLoop=1;jettySize=auto;html=1;" parent="1" source="CYu14Wp-lPYjv29uujxx-30" target="CYu14Wp-lPYjv29uujxx-11" edge="1">
          <mxGeometry relative="1" as="geometry" />
        </mxCell>
        <mxCell id="CYu14Wp-lPYjv29uujxx-30" value="Models/Tools / 3rd Party Units" style="rounded=1;whiteSpace=wrap;html=1;fillColor=#ffe6cc;strokeColor=#d79b00;" parent="1" vertex="1">
          <mxGeometry x="450" y="540" width="110" height="65" as="geometry" />
        </mxCell>
        <mxCell id="CYu14Wp-lPYjv29uujxx-36" style="edgeStyle=orthogonalEdgeStyle;rounded=0;orthogonalLoop=1;jettySize=auto;html=1;exitX=0;exitY=0.5;exitDx=0;exitDy=0;entryX=1;entryY=0.5;entryDx=0;entryDy=0;" parent="1" source="CYu14Wp-lPYjv29uujxx-32" target="CYu14Wp-lPYjv29uujxx-30" edge="1">
          <mxGeometry relative="1" as="geometry" />
        </mxCell>
        <mxCell id="CYu14Wp-lPYjv29uujxx-37" style="edgeStyle=orthogonalEdgeStyle;rounded=0;orthogonalLoop=1;jettySize=auto;html=1;exitX=0;exitY=0.5;exitDx=0;exitDy=0;" parent="1" source="CYu14Wp-lPYjv29uujxx-32" target="CYu14Wp-lPYjv29uujxx-35" edge="1">
          <mxGeometry relative="1" as="geometry" />
        </mxCell>
        <mxCell id="CYu14Wp-lPYjv29uujxx-39" style="edgeStyle=orthogonalEdgeStyle;rounded=0;orthogonalLoop=1;jettySize=auto;html=1;exitX=1;exitY=0.5;exitDx=0;exitDy=0;entryX=0;entryY=0.5;entryDx=0;entryDy=0;" parent="1" source="CYu14Wp-lPYjv29uujxx-32" target="CYu14Wp-lPYjv29uujxx-38" edge="1">
          <mxGeometry relative="1" as="geometry" />
        </mxCell>
        <mxCell id="CYu14Wp-lPYjv29uujxx-42" style="edgeStyle=orthogonalEdgeStyle;rounded=0;orthogonalLoop=1;jettySize=auto;html=1;exitX=1;exitY=0.5;exitDx=0;exitDy=0;entryX=0;entryY=0.5;entryDx=0;entryDy=0;" parent="1" source="CYu14Wp-lPYjv29uujxx-32" target="CYu14Wp-lPYjv29uujxx-40" edge="1">
          <mxGeometry relative="1" as="geometry" />
        </mxCell>
        <mxCell id="CYu14Wp-lPYjv29uujxx-49" style="edgeStyle=orthogonalEdgeStyle;rounded=0;orthogonalLoop=1;jettySize=auto;html=1;exitX=0.5;exitY=1;exitDx=0;exitDy=0;entryX=0.5;entryY=0;entryDx=0;entryDy=0;" parent="1" source="CYu14Wp-lPYjv29uujxx-32" target="CYu14Wp-lPYjv29uujxx-48" edge="1">
          <mxGeometry relative="1" as="geometry" />
        </mxCell>
        <mxCell id="CYu14Wp-lPYjv29uujxx-32" value="Stream&lt;br&gt;API" style="rounded=0;whiteSpace=wrap;html=1;fillColor=#d5e8d4;strokeColor=#82b366;" parent="1" vertex="1">
          <mxGeometry x="755" y="540" width="70" height="65" as="geometry" />
        </mxCell>
        <mxCell id="CYu14Wp-lPYjv29uujxx-35" value="Data Storage / 3rd Party Tools" style="rounded=1;whiteSpace=wrap;html=1;fillColor=#ffe6cc;strokeColor=#d79b00;" parent="1" vertex="1">
          <mxGeometry x="600" y="640" width="110" height="65" as="geometry" />
        </mxCell>
        <mxCell id="CYu14Wp-lPYjv29uujxx-41" style="edgeStyle=orthogonalEdgeStyle;rounded=0;orthogonalLoop=1;jettySize=auto;html=1;exitX=0.5;exitY=1;exitDx=0;exitDy=0;entryX=0.5;entryY=0;entryDx=0;entryDy=0;" parent="1" source="CYu14Wp-lPYjv29uujxx-38" target="CYu14Wp-lPYjv29uujxx-40" edge="1">
          <mxGeometry relative="1" as="geometry" />
        </mxCell>
        <mxCell id="CYu14Wp-lPYjv29uujxx-38" value="Multicaster Service&lt;br&gt;(Optional)" style="rounded=0;whiteSpace=wrap;html=1;fillColor=#d5e8d4;strokeColor=#82b366;" parent="1" vertex="1">
          <mxGeometry x="890" y="540" width="70" height="65" as="geometry" />
        </mxCell>
        <mxCell id="CYu14Wp-lPYjv29uujxx-55" style="edgeStyle=orthogonalEdgeStyle;rounded=0;orthogonalLoop=1;jettySize=auto;html=1;exitX=0.5;exitY=1;exitDx=0;exitDy=0;" parent="1" source="CYu14Wp-lPYjv29uujxx-48" target="CYu14Wp-lPYjv29uujxx-53" edge="1">
          <mxGeometry relative="1" as="geometry" />
        </mxCell>
        <mxCell id="CYu14Wp-lPYjv29uujxx-48" value="File Writer Service" style="rounded=0;whiteSpace=wrap;html=1;fillColor=#d5e8d4;strokeColor=#82b366;" parent="1" vertex="1">
          <mxGeometry x="755" y="640" width="70" height="65" as="geometry" />
        </mxCell>
        <mxCell id="CYu14Wp-lPYjv29uujxx-52" style="edgeStyle=orthogonalEdgeStyle;rounded=0;orthogonalLoop=1;jettySize=auto;html=1;entryX=0.5;entryY=1;entryDx=0;entryDy=0;" parent="1" source="CYu14Wp-lPYjv29uujxx-53" target="CYu14Wp-lPYjv29uujxx-44" edge="1">
          <mxGeometry relative="1" as="geometry">
            <mxPoint x="830" y="760" as="sourcePoint" />
          </mxGeometry>
        </mxCell>
        <mxCell id="CYu14Wp-lPYjv29uujxx-53" value="Historic Data Storage" style="rounded=0;whiteSpace=wrap;html=1;fillColor=#dae8fc;strokeColor=#6c8ebf;" parent="1" vertex="1">
          <mxGeometry x="755" y="730" width="70" height="65" as="geometry" />
        </mxCell>
        <mxCell id="CYu14Wp-lPYjv29uujxx-65" style="edgeStyle=orthogonalEdgeStyle;rounded=0;orthogonalLoop=1;jettySize=auto;html=1;exitX=0;exitY=0.5;exitDx=0;exitDy=0;" parent="1" source="CYu14Wp-lPYjv29uujxx-56" target="CYu14Wp-lPYjv29uujxx-64" edge="1">
          <mxGeometry relative="1" as="geometry" />
        </mxCell>
        <mxCell id="CYu14Wp-lPYjv29uujxx-67" style="edgeStyle=orthogonalEdgeStyle;rounded=0;orthogonalLoop=1;jettySize=auto;html=1;exitX=0;exitY=0.5;exitDx=0;exitDy=0;" parent="1" source="CYu14Wp-lPYjv29uujxx-56" target="CYu14Wp-lPYjv29uujxx-66" edge="1">
          <mxGeometry relative="1" as="geometry" />
        </mxCell>
        <mxCell id="CYu14Wp-lPYjv29uujxx-56" value="Stream&lt;br&gt;API" style="rounded=0;whiteSpace=wrap;html=1;fillColor=#d5e8d4;strokeColor=#82b366;" parent="1" vertex="1">
          <mxGeometry x="670" y="260" width="70" height="65" as="geometry" />
        </mxCell>
        <mxCell id="CYu14Wp-lPYjv29uujxx-69" style="edgeStyle=orthogonalEdgeStyle;rounded=0;orthogonalLoop=1;jettySize=auto;html=1;exitX=0;exitY=0.5;exitDx=0;exitDy=0;" parent="1" source="CYu14Wp-lPYjv29uujxx-64" target="CYu14Wp-lPYjv29uujxx-11" edge="1">
          <mxGeometry relative="1" as="geometry" />
        </mxCell>
        <mxCell id="CYu14Wp-lPYjv29uujxx-64" value="Simulink/Matlab Service" style="rounded=0;whiteSpace=wrap;html=1;fillColor=#f8cecc;strokeColor=#b85450;" parent="1" vertex="1">
          <mxGeometry x="530" y="300" width="95" height="60" as="geometry" />
        </mxCell>
        <mxCell id="CYu14Wp-lPYjv29uujxx-68" style="edgeStyle=orthogonalEdgeStyle;rounded=0;orthogonalLoop=1;jettySize=auto;html=1;exitX=0;exitY=0.5;exitDx=0;exitDy=0;" parent="1" source="CYu14Wp-lPYjv29uujxx-66" target="CYu14Wp-lPYjv29uujxx-11" edge="1">
          <mxGeometry relative="1" as="geometry" />
        </mxCell>
        <mxCell id="CYu14Wp-lPYjv29uujxx-66" value="Virtual Parameter Service" style="rounded=0;whiteSpace=wrap;html=1;fillColor=#f8cecc;strokeColor=#b85450;" parent="1" vertex="1">
          <mxGeometry x="530" y="220" width="95" height="60" as="geometry" />
        </mxCell>
        <mxCell id="CYu14Wp-lPYjv29uujxx-72" value="Broker" style="shape=parallelogram;perimeter=parallelogramPerimeter;whiteSpace=wrap;html=1;fixedSize=1;fillColor=#dae8fc;strokeColor=#6c8ebf;" parent="1" vertex="1">
          <mxGeometry x="890" y="220" width="120" height="60" as="geometry" />
        </mxCell>
        <mxCell id="CYu14Wp-lPYjv29uujxx-74" value="" style="shape=flexArrow;endArrow=classic;html=1;rounded=0;endWidth=23.183673469387752;endSize=7.525714285714286;width=19.428571428571427;fillColor=#f8cecc;strokeColor=#b85450;" parent="1" edge="1">
          <mxGeometry width="50" height="50" relative="1" as="geometry">
            <mxPoint x="269.66" y="477.5" as="sourcePoint" />
            <mxPoint x="269.66" y="559.66" as="targetPoint" />
          </mxGeometry>
        </mxCell>
        <mxCell id="CYu14Wp-lPYjv29uujxx-75" value="WAN &lt;br&gt;Replication" style="edgeLabel;html=1;align=center;verticalAlign=middle;resizable=0;points=[];labelBackgroundColor=#F8CECC;" parent="CYu14Wp-lPYjv29uujxx-74" vertex="1" connectable="0">
          <mxGeometry x="-0.5161" y="1" relative="1" as="geometry">
            <mxPoint x="-1" y="13" as="offset" />
          </mxGeometry>
        </mxCell>
        <mxCell id="CYu14Wp-lPYjv29uujxx-76" value="RDS" style="rounded=0;whiteSpace=wrap;html=1;fillColor=#f8cecc;strokeColor=#b85450;" parent="1" vertex="1">
          <mxGeometry x="240" y="560" width="60" height="60" as="geometry" />
        </mxCell>
        <mxCell id="CYu14Wp-lPYjv29uujxx-77" value="" style="group" parent="1" vertex="1" connectable="0">
          <mxGeometry x="900" y="640" width="80" height="70" as="geometry" />
        </mxCell>
        <mxCell id="CYu14Wp-lPYjv29uujxx-40" value="ATLAS" style="rounded=0;whiteSpace=wrap;html=1;fillColor=#f8cecc;strokeColor=#b85450;" parent="CYu14Wp-lPYjv29uujxx-77" vertex="1">
          <mxGeometry width="60" height="60" as="geometry" />
        </mxCell>
        <mxCell id="CYu14Wp-lPYjv29uujxx-43" value="ATLAS" style="rounded=0;whiteSpace=wrap;html=1;fillColor=#f8cecc;strokeColor=#b85450;" parent="CYu14Wp-lPYjv29uujxx-77" vertex="1">
          <mxGeometry x="10" y="5" width="60" height="60" as="geometry" />
        </mxCell>
        <mxCell id="CYu14Wp-lPYjv29uujxx-44" value="ATLAS" style="rounded=0;whiteSpace=wrap;html=1;fillColor=#f8cecc;strokeColor=#b85450;" parent="CYu14Wp-lPYjv29uujxx-77" vertex="1">
          <mxGeometry x="20" y="10" width="60" height="60" as="geometry" />
        </mxCell>
      </root>
    </mxGraphModel>
  </diagram>
</mxfile>
